<?xml version="1.0" encoding="utf-8"?>
<svg width="369.437px" height="153px" viewBox="0 0 369.437 153" version="1.1" xmlns:xlink="http://www.w3.org/1999/xlink" xmlns="http://www.w3.org/2000/svg">
  <g id="index-logo">
    <path d="M119.864 11.43C127.004 9 127.594 0 120.514 0C118.564 0 116.234 1.37 114.634 4.17L105.004 20.73C104.607 21.4355 104.148 22.1047 103.634 22.73C101.174 19.34 101.894 14.28 105.344 12.06L104.004 10.27C96.544 15.02 98.734 28.75 111.184 28.75C121.784 28.74 126.704 16 119.864 11.43L119.864 11.43ZM111.074 26C109.286 26.0455 107.517 25.6214 105.944 24.77C106.607 23.978 107.203 23.1317 107.724 22.24L113.724 11.87L114.724 11.97C123.004 13.72 119.694 26 111.074 26ZM114.904 9.79L117.774 4.86C120.374 0.38 123.694 3.01 121.914 6.36C120.544 8.93 118.524 9.72 114.904 9.79Z" id="Shape" fill="#FFFFFF" stroke="none" />
    <path d="M259.214 19L258.974 19.27C257.255 21.4498 255.022 23.168 252.474 24.27C253.054 23.35 253.474 22.35 253.944 21.6L257.874 14.86C261.194 9.22 255.824 7.33 252.194 10.58L252.914 9.35L249.354 9.35L243.794 19L243.554 19.27C242.194 20.838 240.256 21.787 238.184 21.9L241.534 16.12C243.694 12.39 241.704 8.87 238.354 8.87C235.614 8.87 233.494 9.96 231.444 13.52L229.694 16.52L228.234 19L228.044 19.22C225.474 22.22 222.984 24.56 221.404 24.56C220.614 24.56 220.174 24.01 220.994 22.56L226.124 13.56C227.664 10.86 226.194 8.91 224.204 8.91C222.664 8.91 221.024 9.76 219.204 11.61L224.884 1.72L221.324 1.72L211.454 19L211.254 19.23C210.012 20.6992 208.583 22.0002 207.004 23.1C208.134 19.71 207.894 14.51 210.084 9.96L207.414 8.52C205.944 10.52 202.724 15.19 199.514 18.95L199.274 19.22C196.704 22.22 194.214 24.56 192.634 24.56C191.844 24.56 191.404 24.01 192.224 22.56L195.784 16.33C197.014 14.17 196.434 12.91 195.274 11.51L193.274 9.12C193.014 8.84603 192.877 8.47812 192.894 8.10087C192.911 7.72362 193.081 7.36952 193.364 7.12L193.474 7.03L191.624 5.03C189.624 6.84 189.434 8.86 190.704 10.5L191.004 10.91C189.434 13.13 187.314 16.14 185.004 18.91L184.764 19.18C182.194 22.18 178.914 24.52 176.414 24.52C174.224 24.52 172.924 23.15 174.564 20.28L174.904 19.66C177.194 20.66 181.504 20.17 184.174 15.56L184.684 14.67C186.604 11.39 184.754 8.92 181.844 8.92C179.027 8.93444 176.453 10.5202 175.174 13.03L171.704 19L171.494 19.24C170.139 20.8145 168.198 21.7651 166.124 21.87L169.474 16.09C170.258 14.8612 170.719 13.4544 170.814 12C170.863 11.2056 170.595 10.4242 170.068 9.82784C169.541 9.23143 168.798 8.86888 168.004 8.82L167.594 8.82C166.755 8.84114 165.943 9.11664 165.264 9.61L169.784 1.78L166.154 1.78L156.184 19L155.994 19.21C153.424 22.21 150.934 24.55 149.354 24.55C148.564 24.55 148.124 24 148.944 22.55L152.504 16.32C153.734 14.16 153.154 12.9 151.994 11.5L149.994 9.11C149.735 8.83472 149.6 8.46601 149.619 8.08873C149.638 7.71146 149.809 7.35811 150.094 7.11L150.204 7.02L148.354 5.02C146.354 6.83 146.164 8.85 147.434 10.49L147.744 10.9C146.174 13.12 144.044 16.13 141.744 18.9L141.504 19.17C138.934 22.17 136.444 24.51 134.864 24.51C134.074 24.51 133.634 23.96 134.454 22.51L140.204 12.45L138.204 12.45C138.071 10.4814 136.417 8.96352 134.444 9C132.524 9 129.864 10.51 128.354 13.11L123.354 21.73C121.844 24.37 122.914 26.79 125.784 26.79C127.224 26.79 129.004 25.87 130.714 24.46C130.884 25.83 131.984 26.79 133.794 26.79C136.734 26.79 140.124 23.64 143.064 20.22C144.774 18.22 146.064 16.46 148.944 12.59L149.424 13.17C149.908 13.7259 149.992 14.5257 149.634 15.17L145.874 21.7C144.374 24.34 145.434 26.76 148.304 26.76C150.364 26.76 152.644 25.21 154.844 23.11C154.844 25.54 156.654 26.91 158.954 26.91C161.353 26.7833 163.562 25.568 164.954 23.61C165.217 23.6274 165.481 23.6274 165.744 23.61C167.406 23.5263 169.025 23.0463 170.464 22.21C170.274 24.78 172.144 26.73 175.284 26.73C179.284 26.73 183.284 23.58 186.284 20.16C187.994 18.16 189.284 16.4 192.164 12.53L192.644 13.11C193.128 13.6659 193.212 14.4657 192.854 15.11L189.094 21.64C187.584 24.28 188.654 26.7 191.524 26.7C194.394 26.7 197.854 23.55 200.794 20.13C202.794 17.8 204.594 15.31 205.854 13.63C204.454 17.33 205.204 23.96 201.854 23.96C201.091 23.8844 200.439 23.3795 200.174 22.66L198.004 23.82C198.474 25.57 200.093 26.7614 201.904 26.69C202.238 26.684 202.572 26.6607 202.904 26.62L203.004 26.62C204.99 26.2841 206.867 25.4746 208.474 24.26L207.254 26.38L210.844 26.38L216.244 16.97C221.724 10.09 224.144 10.97 222.604 13.62L217.984 21.62C216.474 24.25 217.544 26.68 220.414 26.68C222.484 26.68 224.764 25.12 226.964 23.01C226.964 27.55 233.254 28.43 237.114 23.56L237.904 23.56C239.224 23.5067 240.52 23.187 241.714 22.62L235.234 33.86L238.824 33.86L249.464 15.35C253.464 9.94 255.934 11.93 255.004 13.54L249.634 22.85C249.435 23.3878 248.922 23.7449 248.349 23.7449C247.776 23.7449 247.263 23.3878 247.064 22.85L245.064 23.85C245.534 25.6 247.153 26.7914 248.964 26.72L249.174 26.72C254.344 26.62 257.724 23.54 260.634 20.15C260.345 19.5831 259.829 19.1652 259.214 19L259.214 19ZM178.214 14C180.264 10.48 183.894 11.06 181.774 14.75L181.264 15.64C179.554 18.55 177.264 18.48 175.924 18L178.214 14ZM132.604 19.61C130.444 23 128.324 24.61 126.854 24.61C126.064 24.61 125.624 24.06 126.444 22.61L131.444 13.95C133.364 10.63 137.154 11.49 135.444 14.7L132.604 19.61ZM159.394 24.47C159.016 24.5016 158.642 24.37 158.367 24.1082C158.091 23.8464 157.941 23.4795 157.954 23.1C158.005 22.4416 158.218 21.806 158.574 21.25L159.824 19C160.009 20.4986 160.833 21.8439 162.084 22.69C161.54 23.6931 160.522 24.3492 159.384 24.43L159.394 24.47ZM163.104 21C162.104 20.2385 161.54 19.0358 161.594 17.78C161.594 15.25 164.054 11.11 166.074 11.11C166.465 11.1123 166.835 11.2825 167.092 11.5772C167.348 11.872 167.466 12.2628 167.414 12.65C167.376 13.4039 167.142 14.1347 166.734 14.77L163.104 21ZM236.184 19.22L236.004 19.22C235.447 19.2226 234.914 19.4464 234.522 19.8421C234.13 20.2378 233.911 20.773 233.914 21.33C233.917 21.7534 234.034 22.1681 234.254 22.53L234.254 22.6C232.574 25.47 228.504 24.93 230.624 21.23L233.324 16.54L235.004 13.62C237.504 9.38 240.924 11.05 238.764 14.75L236.184 19.22ZM0 73.257L5.714 67.544L11.426 73.259L5.712 78.971L0 73.257ZM352.023 73.283L357.737 67.57L363.45 73.285L357.735 78.997L352.023 73.283Z" id="Shape" fill="#FFFFFF" stroke="none" />
    <path d="M46.804 73.48L48.884 73.48L48.884 65.16L52.154 65.16L52.154 63.07L46.804 63.07L46.804 73.48L46.804 73.48ZM61.694 75L61.694 62.32C61.6833 60.5871 60.6914 59.01 59.134 58.25C59.4476 58.8702 59.612 59.555 59.614 60.25L59.614 72.93C59.6242 74.2918 59.0131 75.584 57.954 76.44C58.9828 77.3955 59.5815 78.7263 59.614 80.13L59.614 94.23C59.5759 96.7519 57.5262 98.7794 55.004 98.79L41.494 98.79L41.494 100.87L57.134 100.87C59.6367 100.832 61.6564 98.8127 61.694 96.31L61.694 82.21C61.6549 80.8016 61.0449 79.4696 60.004 78.52C61.0771 77.6677 61.7 76.3704 61.694 75L61.694 75Z" id="Shape" fill="#636466" stroke="none" />
    <path d="M46.804 91.34L48.884 91.34L48.884 82.95L52.154 82.95L52.154 80.87L46.804 80.87L46.804 91.34ZM79.814 91.34L81.894 91.34L81.894 65.16L85.164 65.16L85.164 63.07L79.814 63.07L79.814 91.34L79.814 91.34Z" id="Shape" fill="#636466" stroke="none" />
    <path d="M92.144 58.25C92.4576 58.8702 92.622 59.555 92.624 60.25L92.624 94.25C92.5864 96.7527 90.5667 98.7724 88.064 98.81L77.004 98.81C76.3092 98.8065 75.6247 98.6423 75.004 98.33C75.764 99.8874 77.3411 100.879 79.074 100.89L90.154 100.89C92.6567 100.852 94.6764 98.8327 94.714 96.33L94.714 62.33C94.7029 60.5919 93.7068 59.0106 92.144 58.25L92.144 58.25ZM112.824 73.48L114.904 73.48L114.904 65.16L118.184 65.16L118.184 63.07L112.824 63.07L112.824 73.48L112.824 73.48ZM125.074 82.52C126.655 81.7872 127.666 80.2025 127.664 78.46L127.664 62.32C127.663 60.574 126.665 58.982 125.094 58.22C125.405 58.8413 125.569 59.5254 125.574 60.22L125.574 76.37C125.586 78.1122 124.582 79.7017 123.004 80.44L126.084 98.79L120.404 98.79L120.754 100.87L128.144 100.87L125.074 82.52ZM115.654 80.87L112.824 80.87L112.824 98.79L107.514 98.79L107.514 100.88L114.904 100.88L114.904 82.95L116.004 82.95L115.654 80.87ZM144.844 91.34L146.934 91.34L146.934 65.16L150.204 65.16L150.204 63.07L144.844 63.07L144.844 91.34L144.844 91.34Z" id="Shape" fill="#636466" stroke="none" />
    <path d="M157.184 58.25C157.498 58.87 157.662 59.555 157.664 60.25L157.664 94.25C157.626 96.7527 155.607 98.7724 153.104 98.81L142.004 98.81C141.309 98.8069 140.625 98.6426 140.004 98.33C140.764 99.8874 142.341 100.879 144.074 100.89L155.164 100.89C157.667 100.852 159.686 98.8327 159.724 96.33L159.724 62.33C159.719 60.5987 158.735 59.0191 157.184 58.25L157.184 58.25ZM177.854 91.34L179.944 91.34L179.944 65.16L183.214 65.16L183.214 63.07L177.854 63.07L177.854 91.34L177.854 91.34Z" id="Shape" fill="#636466" stroke="none" />
    <path d="M190.194 58.25C190.508 58.8702 190.672 59.555 190.674 60.25L190.674 94.25C190.636 96.7527 188.617 98.7724 186.114 98.81L172.554 98.81L172.554 100.89L188.194 100.89C190.697 100.852 192.716 98.8327 192.754 96.33L192.754 62.33C192.745 60.5942 191.753 59.0134 190.194 58.25L190.194 58.25ZM211.244 57.77L211.244 98.79L205.934 98.79L205.934 100.88L213.324 100.88L213.324 57.77L211.244 57.77L211.244 57.77ZM244.124 57.77L244.124 98.79L238.224 98.79L238.814 100.88L246.214 100.88L246.214 57.77L244.124 57.77ZM231.314 79.95L231.314 98.79L226.014 98.79L226.014 100.88L233.404 100.88L233.404 87.19L231.314 79.95L231.314 79.95ZM263.584 83L269.694 83L269.694 80.87L261.504 80.87C260.809 80.8662 260.125 80.7019 259.504 80.39C260.246 81.975 261.834 82.9911 263.584 83L263.584 83ZM266.414 85.73L264.324 86.21L264.324 91.34L266.414 91.34L266.414 85.73ZM276.664 58.25C276.978 58.8702 277.142 59.555 277.144 60.25L277.144 69L271.774 70.24L271.774 72.8L279.224 71.07L279.224 62.32C279.213 60.5871 278.221 59.01 276.664 58.25L276.664 58.25Z" id="Shape" fill="#636466" stroke="none" />
    <path d="M276.664 76.05C276.978 76.6702 277.142 77.355 277.144 78.05L277.144 94.25C277.106 96.7527 275.087 98.7724 272.584 98.81L261.494 98.81C260.799 98.8065 260.115 98.6423 259.494 98.33C260.254 99.8874 261.831 100.879 263.564 100.89L274.644 100.89C277.147 100.852 279.166 98.8327 279.204 96.33L279.204 80.12C279.197 78.3916 278.214 76.8156 276.664 76.05ZM264.324 63.07L264.324 73.48L266.414 73.48L266.414 65.16L269.684 65.16L269.684 63.07L264.324 63.07L264.324 63.07ZM298.014 80.87L297.334 80.87L297.334 98.79L292.034 98.79L292.034 100.88L299.424 100.88L299.424 85.35L298.014 80.87L298.014 80.87ZM313.154 57.77L310.404 57.77L304.174 77.18L311.074 98.79L305.064 98.79L305.644 100.63L305.704 100.88L313.154 100.88L306.254 79.26L313.154 57.77L313.154 57.77ZM330.534 57.77L330.534 98.79L325.234 98.79L325.234 100.88L332.614 100.88L332.614 57.77L330.534 57.77L330.534 57.77Z" id="Shape" fill="#636466" stroke="none" />
    <path d="M167.904 123.85L169.314 123.85C174.744 124.13 179.004 125.58 181.704 128.57C184.444 125.57 188.704 124.11 194.164 123.85L195.514 123.85C207.624 124.67 213.144 133.35 222.814 137.04C224.317 137.725 225.953 138.066 227.604 138.04C230.084 137.77 231.664 135.26 231.344 132.46C231.004 129.46 228.064 126.85 224.784 128.29C224.353 128.49 223.957 128.761 223.614 129.09C223.364 129.32 223.084 129.92 222.444 129.7C221.844 129.2 222.444 128.47 222.754 128.05C223.966 125.895 226.376 124.704 228.824 125.05C234.454 125.45 239.494 130.39 238.634 137.87C236.714 149 226.534 152 214.464 153L210.534 153C200 152.573 189.896 148.709 181.764 142C173.568 148.686 163.431 152.544 152.864 153L149.004 153C136.844 151.93 126.564 149 124.774 137.54C124.094 129.38 128.954 125.37 134.594 124.96C137.061 124.615 139.49 125.802 140.734 127.96C141.014 128.42 141.534 129.13 141.044 129.68C140.434 129.79 140.134 129.31 139.874 129.07C139.136 128.3 138.12 127.858 137.054 127.84C133.194 127.7 130.974 131.99 132.514 135.45C133.126 136.816 134.401 137.769 135.884 137.97C137.533 137.978 139.166 137.638 140.674 136.97C142.019 136.455 143.314 135.819 144.544 135.07C151.894 130.81 157.644 124.76 167.904 123.85L167.904 123.85Z" id="Shape" fill="#FFFFFF" fill-rule="evenodd" stroke="none" />
    <path d="M361.638 82.906L367.351 77.192L369.437 79.277L363.724 84.992L361.638 82.906ZM9.671 82.95L15.384 77.236L17.47 79.322L11.757 85.035L9.671 82.95Z" id="Shape" fill="#636466" stroke="none" />
    <path d="M55.654 69C55.6576 70.3496 55.0512 71.6286 54.004 72.48C55.0328 73.4355 55.6315 74.7663 55.664 76.17L55.664 90.27C55.6264 92.7727 53.6067 94.7924 51.104 94.83L35.454 94.83L35.454 51.72L51.094 51.72C53.6056 51.7364 55.6376 53.7684 55.654 56.28L55.654 69ZM48.204 59.11L42.844 59.11L42.844 69.52L48.204 69.52L48.204 59.11ZM48.204 76.91L42.844 76.91L42.844 87.38L48.204 87.38L48.204 76.91ZM84.104 51.72C86.6156 51.7364 88.6476 53.7684 88.664 56.28L88.664 90.28C88.6264 92.7827 86.6067 94.8024 84.104 94.84L73.004 94.84C70.4924 94.8236 68.4604 92.7916 68.444 90.28L68.444 56.28C68.4413 55.0698 68.9209 53.9084 69.7767 53.0527C70.6324 52.1969 71.7938 51.7173 73.004 51.72L84.104 51.72ZM81.204 59.11L75.854 59.11L75.854 87.38L81.214 87.38L81.204 59.11ZM114.714 94.83L111.714 76.91L108.884 76.91L108.884 94.83L101.494 94.83L101.494 51.72L117.134 51.72C118.335 51.7279 119.485 52.2128 120.328 53.068C121.172 53.9232 121.642 55.0786 121.634 56.28L121.634 72.42C121.629 74.1718 120.6 75.7589 119.004 76.48L122.084 94.83L114.714 94.83ZM114.224 59.11L108.864 59.11L108.864 69.52L114.224 69.52L114.224 59.11ZM149.144 51.72C151.656 51.7364 153.688 53.7684 153.704 56.28L153.704 90.28C153.666 92.7827 151.647 94.8024 149.144 94.84L138.064 94.84C135.552 94.8236 133.52 92.7916 133.504 90.28L133.504 56.28C133.498 53.7826 135.507 51.7474 138.004 51.72L149.104 51.72L149.144 51.72ZM146.244 59.11L140.884 59.11L140.884 87.38L146.244 87.38L146.244 59.11ZM182.154 51.72C184.666 51.7364 186.698 53.7684 186.714 56.28L186.714 90.28C186.676 92.7827 184.657 94.8024 182.154 94.84L166.514 94.84L166.514 51.72L182.154 51.72ZM179.264 59.11L173.904 59.11L173.904 87.38L179.264 87.38L179.264 59.11ZM199.894 51.72L207.284 51.72L207.284 94.83L199.894 94.83L199.894 51.72ZM240.174 51.72L240.174 94.83L232.784 94.83L227.364 76L227.364 94.83L220.004 94.83L220.004 51.72L227.334 51.72L232.754 69.39L232.754 51.72L240.174 51.72ZM268.624 69.52C271.136 69.5364 273.168 71.5684 273.184 74.08L273.184 90.28C273.146 92.7827 271.127 94.8024 268.624 94.84L257.544 94.84C255.04 94.8128 253.02 92.7839 253.004 90.28L253.004 81.41L260.394 79.69L260.394 87.39L265.754 87.39L265.754 76.91L257.564 76.91C256.357 76.9127 255.199 76.4358 254.344 75.5844C253.489 74.733 253.007 73.5767 253.004 72.37L253.004 56.28C253.001 55.0733 253.478 53.9149 254.33 53.0597C255.181 52.2046 256.337 51.7226 257.544 51.72L268.644 51.72C271.156 51.7364 273.188 53.7684 273.204 56.28L273.204 65L265.754 66.73L265.754 59.11L260.394 59.11L260.394 69.52L268.624 69.52ZM300.224 73.22L307.124 94.84L299.674 94.84L299.614 94.59L294.074 76.92L293.394 76.92L293.394 94.83L286.004 94.83L286.004 51.72L293.394 51.72L293.394 69.52L294.004 69.52L299.674 51.72L307.184 51.72L300.224 73.22ZM319.194 51.72L326.584 51.72L326.584 94.83L319.194 94.83L319.194 51.72Z" id="Shape" fill="#FFFFFF" stroke="none" />
  </g>
</svg>