<?xml version="1.0" encoding="utf-8"?>
<svg width="112px" height="24px" viewBox="0 0 112 24" version="1.1" xmlns:xlink="http://www.w3.org/1999/xlink" xmlns="http://www.w3.org/2000/svg">
  <g id="logo-small" fill-opacity="1">
    <path d="M-2548 1L-2548 1L-2548 25L-2660 25L-2660 1L-2548 1Z" id="logo-small" fill="none" stroke="none" />
    <g id="logo-small" transform="translate(0.046875 0.29000092)">
      <path d="M13.8831 7.88C18.8831 6.21 19.2231 0 14.3331 0C12.5685 0.181938 11.028 1.27468 10.2731 2.88L3.67307 14.3C3.39899 14.7973 3.08107 15.2692 2.72307 15.71C1.89405 14.5728 1.55731 13.1499 1.78867 11.7618C2.02003 10.3736 2.80004 9.13687 3.95307 8.33L2.95307 7.08C-2.18693 10.36 -0.676934 19.83 7.95307 19.83C15.2131 19.83 18.6131 11.02 13.8831 7.88ZM7.82307 17.94C6.58905 17.971 5.36847 17.6779 4.28307 17.09C4.74147 16.5422 5.15293 15.9568 5.51307 15.34L9.64307 8.19L10.3031 8.26C16.0631 9.47 13.7731 17.94 7.82307 17.94L7.82307 17.94ZM10.4631 6.71L12.4631 3.31C14.2531 0.22 16.5431 2.04 15.3131 4.31C14.3631 6.16 12.9531 6.71 10.4631 6.71Z" id="Shape" fill="#FFFFFF" stroke="none" />
      <path d="M110.033 13.08L109.863 13.27C108.675 14.7711 107.132 15.9532 105.373 16.71C105.773 16.07 106.083 15.39 106.373 14.87L109.083 10.22C111.373 6.33 107.663 5.03 105.163 7.27L105.663 6.42L103.203 6.42L99.3631 13.08L99.1931 13.27C98.2543 14.3546 96.9154 15.0114 95.4831 15.09L97.8031 11.09C99.2931 8.52 97.9231 6.09 95.6031 6.09C93.7131 6.09 92.2531 6.85 90.8331 9.3L89.6331 11.4L88.6331 13.12L88.5031 13.27C86.7331 15.32 85.0131 16.95 83.9231 16.95C83.3831 16.95 83.0731 16.57 83.6431 15.61L87.1831 9.4C88.2431 7.53 87.1831 6.19 85.8631 6.19C84.5171 6.32501 83.2832 6.99968 82.4431 8.06L86.3631 1.24L83.9531 1.24L77.0831 13.11L76.9431 13.27C76.0673 14.2839 75.0621 15.1782 73.9531 15.93C74.7331 13.59 74.5731 10.01 76.0831 6.86L74.2331 5.86C73.2331 7.25 71.0031 10.46 68.7831 13.06L68.6131 13.25C66.8431 15.3 65.1231 16.93 64.0331 16.93C63.4931 16.93 63.1831 16.55 63.7531 15.59L66.2131 11.29C66.962 10.253 66.8112 8.81865 65.8631 7.96L64.5231 6.33C64.351 6.1241 64.2689 5.85768 64.2952 5.59063C64.3216 5.32359 64.4541 5.07834 64.6631 4.91L63.3931 3.52C61.9531 4.77 61.8731 6.16 62.7531 7.3L62.9631 7.58C61.8731 9.11 60.4131 11.19 58.8131 13.08L58.6431 13.27C56.8731 15.32 54.6431 16.95 52.8831 16.95C51.3731 16.95 50.4731 16.01 51.6031 14.02L51.8431 13.6C53.4231 14.26 56.4031 13.95 58.2431 10.77L58.5931 10.16C59.9131 7.89 58.5931 6.16 56.5931 6.16C54.651 6.16839 52.8762 7.26032 51.9931 8.99L49.6531 13.1L49.5031 13.27C48.5679 14.3593 47.2269 15.0172 45.7931 15.09L48.1031 11.09C48.6394 10.2447 48.9556 9.27875 49.0231 8.28C49.0525 7.68446 48.8274 7.1045 48.4038 6.68479C47.9803 6.26508 47.3983 6.0452 46.8031 6.08C46.2276 6.09486 45.6699 6.28306 45.2031 6.62L48.3231 1.21L45.8231 1.21L38.9531 13.12L38.8231 13.27C37.0531 15.32 35.3331 16.95 34.2431 16.95C33.7031 16.95 33.3931 16.57 33.9631 15.61L36.4131 11.31C37.162 10.273 37.0112 8.83865 36.0631 7.98L34.6831 6.33C34.511 6.1241 34.4289 5.85768 34.4552 5.59063C34.4816 5.32359 34.6141 5.07834 34.8231 4.91L33.5531 3.52C32.1631 4.77 32.0431 6.16 32.9531 7.3L33.1631 7.58C32.0731 9.11 30.6131 11.19 29.0131 13.08L28.8431 13.27C27.0731 15.32 25.3531 16.95 24.2631 16.95C23.7231 16.95 23.4131 16.57 23.9831 15.61L27.9531 8.71L26.5231 8.71C26.5066 7.30557 25.3576 6.17889 23.9531 6.19C22.1732 6.38607 20.6032 7.44397 19.7531 9.02L16.3131 14.97C15.3131 16.79 16.0031 18.46 17.9931 18.46C19.2685 18.3045 20.4603 17.7436 21.3931 16.86C21.5477 17.8851 22.4955 18.5971 23.5231 18.46C25.5231 18.46 27.8831 16.29 29.9231 13.93C31.0831 12.56 31.9531 11.33 33.9531 8.71L34.2731 9.11C34.6095 9.49688 34.6656 10.0538 34.4131 10.5L31.8131 15.01C30.8131 16.83 31.5031 18.5 33.4931 18.5C34.9231 18.5 36.4931 17.43 38.0031 15.98C37.9882 16.7168 38.289 17.4248 38.8298 17.9254C39.3706 18.4261 40.0996 18.6716 40.8331 18.6C42.5049 18.5216 44.0471 17.6767 45.0131 16.31C45.1929 16.3217 45.3733 16.3217 45.5531 16.31C46.7041 16.2425 47.8222 15.8996 48.8131 15.31C48.6831 17.08 49.9731 18.43 52.1431 18.43C54.9331 18.43 57.6931 16.26 59.7231 13.9C60.9031 12.53 61.8231 11.3 63.7831 8.64L64.1131 9.04C64.4495 9.42688 64.5056 9.9838 64.2531 10.43L61.6531 14.94C60.6531 16.76 61.3431 18.43 63.3331 18.43C65.3231 18.43 67.6931 16.26 69.7331 13.9C71.1231 12.3 72.3531 10.57 73.2231 9.42C72.2231 11.97 72.7731 16.55 70.4431 16.55C69.9147 16.5 69.4628 16.1494 69.2831 15.65L67.7531 16.45C68.0666 17.6628 69.1812 18.4946 70.4331 18.45C70.6596 18.4616 70.8866 18.4616 71.1131 18.45L71.1831 18.45C72.5574 18.2039 73.8512 17.6274 74.9531 16.77L74.1131 18.24L76.5931 18.24L80.3331 11.71C84.1131 6.97 85.7931 7.58 84.7231 9.4L81.5331 14.95C80.5331 16.76 81.2331 18.44 83.2131 18.44C84.6431 18.44 86.2131 17.37 87.7331 15.91C87.7331 19.04 92.0731 19.65 94.7331 16.29L95.2731 16.29C96.1966 16.2815 97.1087 16.0841 97.9531 15.71L93.4831 23.46L95.9531 23.46L103.293 10.69C106.033 6.96 107.753 8.33 107.113 9.44L103.403 15.86C103.23 16.1886 102.889 16.3944 102.518 16.3944C102.147 16.3944 101.806 16.1886 101.633 15.86L100.243 16.52C100.557 17.7366 101.678 18.5694 102.933 18.52L103.073 18.52C106.633 18.45 108.973 16.32 110.983 13.99C110.818 13.5599 110.47 13.226 110.033 13.08ZM54.1331 9.63C55.5531 7.2 58.0531 7.63 56.5831 10.15L56.2331 10.76C55.0531 12.76 53.4731 12.76 52.5531 12.39L54.1331 9.63ZM22.6731 13.5C21.1831 15.84 19.6731 16.95 18.6731 16.95C18.1331 16.95 17.8231 16.57 18.3931 15.61L21.8131 9.61C23.1331 7.32 25.7531 7.91 24.5531 10.13L22.6731 13.5ZM41.1531 16.85C40.892 16.8729 40.6336 16.7833 40.4427 16.6038C40.2517 16.4244 40.1464 16.172 40.1531 15.91C40.1898 15.4578 40.3375 15.0216 40.5831 14.64L41.4531 13.13C41.5719 14.1764 42.1417 15.1187 43.0131 15.71C42.6242 16.3786 41.9253 16.8069 41.1531 16.85ZM43.7231 14.47C43.0494 13.936 42.6766 13.1084 42.7231 12.25C42.7231 10.5 44.4231 7.65 45.8131 7.65C46.0759 7.6618 46.3217 7.78317 46.4908 7.98461C46.6599 8.18606 46.7369 8.44915 46.7031 8.71C46.6756 9.22917 46.5136 9.73228 46.2331 10.17L43.7231 14.47ZM94.1431 13.24L94.0231 13.24C93.6368 13.2426 93.2675 13.3993 92.9971 13.6753C92.7268 13.9513 92.5778 14.3237 92.5831 14.71C92.5865 15.0033 92.6694 15.2902 92.8231 15.54C91.6631 17.54 88.8231 17.14 90.3231 14.6L92.1931 11.37L93.3731 9.37C95.0931 6.44 97.4531 7.6 95.9731 10.15L94.1431 13.24Z" id="Shape" fill="#FFFFFF" stroke="none" />
    </g>
  </g>
</svg>